<?xml version="1.0" encoding="UTF-8" standalone="no"?>
<!DOCTYPE svg PUBLIC "-//W3C//DTD SVG 1.1//EN" "http://www.w3.org/Graphics/SVG/1.1/DTD/svg11.dtd">
<svg width="100%" height="100%" viewBox="0 0 497 483" version="1.1" xmlns="http://www.w3.org/2000/svg" xmlns:xlink="http://www.w3.org/1999/xlink" xml:space="preserve" xmlns:serif="http://www.serif.com/" style="fill-rule:evenodd;clip-rule:evenodd;stroke-linejoin:round;stroke-miterlimit:1;">
    <g transform="matrix(760.845,0,0,516.812,0,378.02)">
        <path d="M0.102,-0.11C0.102,-0.151 0.089,-0.182 0.064,-0.204C0.049,-0.217 0.028,-0.228 0,-0.236L0,-0.295C0.032,-0.306 0.054,-0.318 0.067,-0.331C0.09,-0.353 0.102,-0.387 0.102,-0.434L0.102,-0.564C0.102,-0.581 0.104,-0.598 0.11,-0.617C0.12,-0.648 0.136,-0.673 0.16,-0.692C0.181,-0.709 0.206,-0.72 0.235,-0.726C0.253,-0.729 0.278,-0.731 0.311,-0.731L0.311,-0.654C0.284,-0.648 0.266,-0.64 0.256,-0.63C0.241,-0.615 0.233,-0.589 0.233,-0.552L0.233,-0.438C0.233,-0.402 0.229,-0.373 0.219,-0.352C0.202,-0.315 0.17,-0.286 0.121,-0.264C0.165,-0.246 0.195,-0.225 0.21,-0.201C0.225,-0.177 0.233,-0.145 0.233,-0.103L0.233,0.021C0.233,0.057 0.242,0.083 0.26,0.099C0.27,0.109 0.287,0.117 0.311,0.124L0.311,0.202L0.276,0.201C0.23,0.199 0.189,0.185 0.154,0.159C0.119,0.132 0.102,0.094 0.102,0.043L0.102,-0.11Z" style="fill:rgb(255,96,166);fill-rule:nonzero;"/>
    </g>
    <g transform="matrix(0.5,0,0,0.888889,-34.8805,-158.88)">
        <g transform="matrix(1.21999,0,0,0.684908,-7375.93,-795.631)">
            <rect x="6514.09" y="1570.59" width="375.146" height="78.111" style="stroke:black;stroke-width:54.15px;"/>
        </g>
        <g transform="matrix(1.21999,0,0,0.684908,-7375.93,-509.282)">
            <rect x="6514.09" y="1570.59" width="375.146" height="78.111" style="stroke:black;stroke-width:54.15px;"/>
        </g>
        <g transform="matrix(0.828353,0,0,0.684908,-4824.8,-652.457)">
            <rect x="6514.09" y="1570.59" width="375.146" height="78.111" style="stroke:black;stroke-width:63.38px;"/>
        </g>
    </g>
</svg>
